<svg width="17" height="18" viewBox="0 0 17 18" fill="none" xmlns="http://www.w3.org/2000/svg">
<path d="M16.2822 6.31241C16.6074 5.78978 16.8716 5.16463 16.8998 4.48826C16.9228 3.93746 16.7191 3.39293 16.3408 2.99429C15.9674 2.60086 15.4658 2.38096 14.9284 2.37516C14.9209 2.37509 14.9137 2.37505 14.9062 2.37505C14.433 2.37505 13.9853 2.53895 13.6266 2.83999C12.1537 1.70357 10.3264 1.07972 8.46021 1.07972C7.24208 1.07972 6.03049 1.34568 4.93042 1.85027C4.88995 1.39219 4.69596 0.954176 4.37815 0.619242C4.00479 0.225773 3.50318 0.00594141 2.96578 0.000140625C2.95826 3.51563e-05 2.95098 0 2.94356 0C2.41446 0 1.91682 0.204398 1.54023 0.576949C1.15836 0.954703 0.948023 1.45863 0.948023 1.99579C0.948023 2.88366 1.36477 3.69018 1.8154 4.30277C1.28668 4.97257 0.864527 5.71363 0.559476 6.50816C0.507375 6.64393 0.575191 6.79623 0.710894 6.84837C0.741973 6.86025 0.773824 6.86591 0.805219 6.86591C0.911039 6.86591 1.01088 6.80161 1.0511 6.69691C1.32029 5.99576 1.6869 5.33897 2.14249 4.74043C2.1362 4.80245 2.13216 4.86489 2.13216 4.92701V6.20641C2.13216 6.45845 2.27088 6.68753 2.49419 6.80439C2.59295 6.85607 2.70028 6.88159 2.80726 6.88159C2.94212 6.88159 3.07642 6.84091 3.19191 6.76076L4.13564 6.10552C4.39973 5.92218 4.70925 5.82525 5.03082 5.82525H6.2454C6.7165 5.82525 7.15939 5.6418 7.49253 5.3087L8.69108 4.11015C9.0938 3.7074 9.11605 3.05571 8.74167 2.62642L8.15804 1.95722C8.07574 1.86286 8.04259 1.73696 8.06231 1.61715C8.19478 1.61047 8.32743 1.60632 8.46021 1.60632C10.1953 1.60632 11.8942 2.18159 13.269 3.22984C13.0364 3.56203 12.9107 3.95641 12.9107 4.37087C12.9107 4.73576 12.9815 5.08669 13.0957 5.41631C13.0181 5.98911 13.1019 6.57032 13.3388 7.09787L13.8511 8.23841C14.1255 8.84918 14.7354 9.24388 15.405 9.24388C15.7448 9.24388 16.0735 9.14365 16.3555 8.95412L16.3718 8.94315C16.3864 9.14084 16.3937 9.33978 16.3937 9.53989C16.3937 13.9145 12.8348 17.4735 8.46017 17.4735C4.08558 17.4735 0.526605 13.9144 0.526605 9.53982C0.526605 8.92586 0.596953 8.31438 0.735715 7.72239C0.768902 7.58078 0.681047 7.43913 0.539473 7.40595C0.397898 7.37258 0.256184 7.46058 0.223031 7.60219C0.0750234 8.23356 0 8.8855 0 9.53986C0 11.7997 0.880031 13.9242 2.47795 15.5221C4.07584 17.12 6.20037 18 8.46017 18C10.72 18 12.8445 17.12 14.4424 15.5221C16.0403 13.9242 16.9203 11.7996 16.9203 9.53982C16.9203 8.42154 16.7053 7.33634 16.2822 6.31241ZM1.9106 0.951293C2.18781 0.677039 2.55414 0.526605 2.94374 0.526605C2.94915 0.526605 2.9546 0.526641 2.96005 0.526711C3.35373 0.53093 3.72168 0.692508 3.99611 0.981703C4.27686 1.27758 4.42811 1.68198 4.41102 2.09127C4.36205 3.26457 3.41902 4.3207 3.01581 4.72025C2.97612 4.75959 2.91157 4.75966 2.87209 4.7205C2.45194 4.30414 1.47463 3.20516 1.47463 1.99579C1.47463 1.60035 1.62946 1.22941 1.9106 0.951293ZM7.76113 2.3033L8.34479 2.97253C8.53784 3.19391 8.52641 3.53004 8.31867 3.73774L7.12012 4.93629C6.88648 5.16997 6.57584 5.29864 6.2454 5.29864H5.03082C4.60143 5.29864 4.18802 5.42809 3.83534 5.67295L2.8916 6.32816C2.82512 6.37443 2.7623 6.35027 2.73832 6.33776C2.71441 6.32524 2.65883 6.28738 2.65883 6.20641V5.2078C2.74802 5.25294 2.84586 5.27583 2.94381 5.27583C3.10412 5.27583 3.26447 5.21532 3.38657 5.09435C3.8944 4.59105 4.7231 3.61248 4.9038 2.44712C5.72326 2.03576 6.61627 1.7692 7.53114 1.66131C7.52558 1.89207 7.60391 2.12298 7.76113 2.3033ZM14.9064 2.90162C14.9118 2.90162 14.9173 2.90166 14.9227 2.90173C15.3164 2.90595 15.6844 3.06756 15.9588 3.35675C16.2395 3.65263 16.3908 4.05703 16.3737 4.46629C16.3247 5.63959 15.3817 6.69572 14.9785 7.0953C14.9388 7.13464 14.8743 7.13471 14.8348 7.09555C14.4146 6.67916 13.4373 5.58018 13.4373 4.37084C13.4373 3.9754 13.5922 3.60443 13.8733 3.32631C14.1505 3.05209 14.5168 2.90162 14.9064 2.90162ZM16.0616 8.51702C15.8668 8.64798 15.6398 8.7172 15.405 8.7172C14.9425 8.7172 14.521 8.44453 14.3315 8.02255L13.8192 6.88201C13.7744 6.7821 13.7364 6.67979 13.7049 6.57587C13.9646 6.94494 14.2429 7.25041 14.4641 7.46961C14.586 7.59041 14.7462 7.65081 14.9064 7.65081C15.0667 7.65081 15.227 7.5903 15.3491 7.46933C15.5159 7.30413 15.7172 7.08739 15.9188 6.82998C16.0988 7.32452 16.2282 7.83327 16.3059 8.35277L16.0616 8.51702Z" fill="white"/>
<path d="M14.9065 5.54684C15.5192 5.54684 16.0175 5.04843 16.0175 4.43584C16.0175 3.82324 15.5191 3.32483 14.9065 3.32483C14.2939 3.32483 13.7955 3.82324 13.7955 4.43584C13.7955 5.04843 14.2939 5.54684 14.9065 5.54684ZM14.9065 3.8514C15.2288 3.8514 15.4909 4.11356 15.4909 4.4358C15.4909 4.75804 15.2288 5.0202 14.9065 5.0202C14.5843 5.0202 14.3221 4.75804 14.3221 4.4358C14.3221 4.11356 14.5843 3.8514 14.9065 3.8514Z" fill="white"/>
<path d="M10.8922 5.75734C10.5188 5.36387 10.0173 5.14397 9.47982 5.13817C9.47237 5.1381 9.46509 5.13806 9.45767 5.13806C8.92857 5.13806 8.43093 5.34246 8.05434 5.71501C7.76957 5.99672 7.58036 6.3486 7.50245 6.73205C6.89769 6.70578 6.31111 6.98658 5.95456 7.4903L5.06985 8.74003C4.72458 9.22772 4.68158 9.85979 4.94807 10.3858C4.83553 10.6381 4.77584 10.9134 4.77584 11.1983C4.77584 12.3581 5.48673 13.3788 6.05556 14.0099L5.99829 15.5664C5.98465 15.9376 6.15713 16.2878 6.45968 16.5032C6.65009 16.6388 6.874 16.7067 7.09805 16.7067C7.31778 16.7067 7.53764 16.6414 7.72591 16.5106L10.1496 14.8268C10.527 14.5646 10.8529 14.2415 11.1183 13.8666L11.85 12.833C11.934 12.7143 11.906 12.55 11.7872 12.466C11.6686 12.3819 11.5042 12.41 11.4202 12.5287L10.6885 13.5623C10.4585 13.8872 10.1761 14.1672 9.84907 14.3944L7.42539 16.0781C7.22704 16.2158 6.96175 16.2143 6.76512 16.0743C6.60734 15.9619 6.51737 15.7793 6.52451 15.5857L6.5674 14.4439C6.63342 14.4664 6.70237 14.4783 6.77148 14.4783C6.93176 14.4783 7.09214 14.4178 7.21421 14.2968C7.76985 13.7461 8.71021 12.6266 8.76488 11.3157C8.78784 10.7649 8.58407 10.2204 8.20579 9.82172C7.83243 9.42825 7.33082 9.20838 6.79339 9.20258C6.25753 9.19611 5.74974 9.40167 5.36794 9.77946C5.35015 9.79704 5.33313 9.81518 5.31612 9.83332C5.27263 9.5617 5.33394 9.27827 5.49956 9.04431L6.38427 7.79457C6.63364 7.44238 7.04226 7.24484 7.4648 7.25816C7.5214 8.56175 8.45308 9.67543 9.0154 10.2327C9.13736 10.3535 9.2975 10.4139 9.45771 10.4139C9.61805 10.4139 9.7784 10.3534 9.9005 10.2324C10.1298 10.0052 10.4244 9.68095 10.6954 9.28661L12.0617 10.2538C12.2341 10.3759 12.3486 10.5577 12.3843 10.766C12.4199 10.9742 12.3723 11.1838 12.2502 11.3562L12.0581 11.6276C11.9741 11.7462 12.0022 11.9106 12.1209 11.9946C12.1671 12.0273 12.2202 12.0431 12.2728 12.0431C12.3553 12.0431 12.4366 12.0044 12.4879 11.9319L12.68 11.6605C12.8833 11.3733 12.9626 11.0241 12.9033 10.6772C12.844 10.3303 12.6531 10.0273 12.3659 9.824L10.9729 8.83791C11.2316 8.36744 11.4271 7.8279 11.4512 7.2513C11.4742 6.70051 11.2705 6.15598 10.8922 5.75734ZM6.77155 9.72905C6.77697 9.72905 6.78242 9.72908 6.7878 9.72915C7.18151 9.73337 7.54946 9.89498 7.82389 10.1842C8.10465 10.4801 8.25589 10.8845 8.23884 11.2937C8.18986 12.4671 7.2468 13.5231 6.84355 13.9228C6.80393 13.9621 6.73946 13.9621 6.6999 13.9229C6.27972 13.5066 5.30244 12.4077 5.30244 11.1983C5.30244 10.8029 5.45727 10.4319 5.73838 10.1538C6.01562 9.87948 6.38195 9.72905 6.77155 9.72905ZM9.52988 9.85835C9.49026 9.89773 9.42571 9.8978 9.38616 9.8586C8.96601 9.44221 7.98873 8.34322 7.98873 7.13388C7.98873 6.73844 8.14356 6.36748 8.42471 6.08935C8.70192 5.8151 9.06824 5.66467 9.45785 5.66467C9.46326 5.66467 9.46871 5.6647 9.47412 5.66477C9.86784 5.66899 10.2358 5.8306 10.5102 6.1198C10.791 6.41568 10.9422 6.82008 10.9251 7.22933C10.8762 8.40267 9.93309 9.45876 9.52988 9.85835Z" fill="white"/>
<path d="M10.3057 6.9357C10.1602 6.9357 10.0423 7.05358 10.0423 7.19902C10.0423 7.52126 9.78018 7.78342 9.45794 7.78342C9.13569 7.78342 8.87353 7.52126 8.87353 7.19902C8.87353 6.87678 9.13569 6.61462 9.45794 6.61462C9.49703 6.61462 9.53605 6.61849 9.57392 6.62611C9.71665 6.65456 9.85531 6.56234 9.88396 6.41982C9.91258 6.27722 9.82022 6.13846 9.67766 6.10977C9.6057 6.09532 9.53177 6.08801 9.45794 6.08801C8.8453 6.08801 8.34692 6.58642 8.34692 7.19902C8.34692 7.81162 8.84534 8.31003 9.45794 8.31003C10.0706 8.31003 10.569 7.81162 10.569 7.19902C10.569 7.05354 10.4511 6.9357 10.3057 6.9357Z" fill="white"/>
<path d="M6.77165 12.3744C7.38428 12.3744 7.88266 11.8759 7.88266 11.2634C7.88266 10.6508 7.38425 10.1523 6.77165 10.1523C6.15905 10.1523 5.66064 10.6508 5.66064 11.2634C5.66064 11.8759 6.15902 12.3744 6.77165 12.3744ZM6.77165 10.6789C7.09389 10.6789 7.35605 10.9411 7.35605 11.2633C7.35605 11.5856 7.09389 11.8477 6.77165 11.8477C6.44941 11.8477 6.18725 11.5856 6.18725 11.2633C6.18725 10.9411 6.44941 10.6789 6.77165 10.6789Z" fill="white"/>
<path d="M4.05482 2.06084C4.05482 1.4482 3.55641 0.949829 2.94381 0.949829C2.33121 0.949829 1.83276 1.44824 1.83276 2.06084C1.83276 2.67343 2.33117 3.17181 2.94377 3.17181C3.55637 3.17181 4.05482 2.67343 4.05482 2.06084ZM2.35941 2.06084C2.35941 1.73859 2.62157 1.47643 2.94381 1.47643C3.26605 1.47643 3.52821 1.73859 3.52821 2.06084C3.52821 2.38308 3.26605 2.6452 2.94381 2.6452C2.62157 2.6452 2.35941 2.38308 2.35941 2.06084Z" fill="white"/>
</svg>
