<svg width="15" height="16" viewBox="0 0 15 16" fill="none" xmlns="http://www.w3.org/2000/svg">
<path d="M11.4667 2.1333H3.46667C2.73031 2.1333 2.13333 2.73028 2.13333 3.46663V11.7333C2.13333 11.8806 2.25271 12 2.4 12C2.54719 12 2.66667 11.8806 2.66667 11.7333V3.46663C2.66667 3.02486 3.02479 2.66663 3.46667 2.66663H11.4667C11.9084 2.66663 12.2667 3.02486 12.2667 3.46663V14.6666C12.2667 15.1084 11.9084 15.4666 11.4667 15.4666C11.0248 15.4666 10.6667 15.1084 10.6667 14.6666V13.3333C10.6667 13.0387 10.4278 12.8 10.1333 12.8H0.533333C0.23875 12.8 0 13.0387 0 13.3333V14.6666C0 15.403 0.596979 16 1.33333 16H11.4667C12.2029 16 12.8 15.403 12.8 14.6666V3.46663C12.8 2.73028 12.2029 2.1333 11.4667 2.1333ZM1.33333 15.4666C0.891458 15.4666 0.533333 15.1084 0.533333 14.6666V13.3333H10.1333V14.6666C10.1333 14.9552 10.2269 15.2358 10.4 15.4666H1.33333Z" fill="white"/>
<path d="M10.1333 5.33338C10.2805 5.33338 10.4 5.21401 10.4 5.06672C10.4 4.91942 10.2805 4.80005 10.1333 4.80005H5.86664C5.71935 4.80005 5.59998 4.91942 5.59998 5.06672C5.59998 5.21401 5.71935 5.33338 5.86664 5.33338H10.1333Z" fill="white"/>
<path d="M4.26672 6.66669C4.26672 6.81398 4.3861 6.93336 4.53339 6.93336H10.1334C10.2806 6.93336 10.4001 6.81398 10.4001 6.66669C10.4001 6.5194 10.2806 6.40002 10.1334 6.40002H4.53339C4.3861 6.40002 4.26672 6.5194 4.26672 6.66669Z" fill="white"/>
<path d="M4.53339 8.53333H10.1334C10.2806 8.53333 10.4001 8.41396 10.4001 8.26667C10.4001 8.11937 10.2806 8 10.1334 8H4.53339C4.3861 8 4.26672 8.11937 4.26672 8.26667C4.26672 8.41396 4.3861 8.53333 4.53339 8.53333Z" fill="white"/>
<path d="M4.53339 10.1333H10.1334C10.2806 10.1333 10.4001 10.0139 10.4001 9.86664C10.4001 9.71935 10.2806 9.59998 10.1334 9.59998H4.53339C4.3861 9.59998 4.26672 9.71935 4.26672 9.86664C4.26672 10.0139 4.3861 10.1333 4.53339 10.1333Z" fill="white"/>
<path d="M4.53339 11.7333H9.06672C9.21391 11.7333 9.33339 11.6139 9.33339 11.4666C9.33339 11.3193 9.21391 11.2 9.06672 11.2H4.53339C4.3861 11.2 4.26672 11.3193 4.26672 11.4666C4.26672 11.6139 4.3861 11.7333 4.53339 11.7333Z" fill="white"/>
<path d="M13.6001 0H5.60006C4.8637 0 4.26672 0.596979 4.26672 1.33333C4.26672 1.48063 4.3861 1.6 4.53339 1.6C4.68058 1.6 4.80006 1.48063 4.80006 1.33333C4.80006 0.891563 5.15818 0.533333 5.60006 0.533333H13.6001C14.0418 0.533333 14.4001 0.891563 14.4001 1.33333V12.5333C14.4001 12.9751 14.0418 13.3333 13.6001 13.3333C13.4528 13.3333 13.3334 13.4527 13.3334 13.6C13.3334 13.7473 13.4528 13.8667 13.6001 13.8667C14.3363 13.8667 14.9334 13.2697 14.9334 12.5333V1.33333C14.9334 0.596979 14.3363 0 13.6001 0Z" fill="white"/>
</svg>
