<svg width="18" height="18" viewBox="0 0 18 18" fill="none" xmlns="http://www.w3.org/2000/svg">
<path d="M17.9292 16.3004L16.6935 12.7042C17.2878 11.5027 17.6022 10.1636 17.6043 8.81614C17.6079 6.49576 16.7101 4.30169 15.0762 2.63824C13.4421 0.974473 11.2646 0.0379818 8.94481 0.00117326C7.72943 -0.0183384 6.55008 0.205607 5.43774 0.666048C4.36487 1.11018 3.40275 1.7535 2.57813 2.57812C1.75347 3.40275 1.11015 4.36487 0.666052 5.43773C0.205611 6.55007 -0.0180883 7.73002 0.00114211 8.94481C0.0378804 11.2646 0.974407 13.4421 2.63818 15.0763C4.29839 16.7069 6.4868 17.6044 8.80219 17.6044C8.80672 17.6044 8.8115 17.6044 8.81604 17.6044C10.1635 17.6023 11.5026 17.2879 12.7041 16.6936L16.3003 17.9293C16.4386 17.9768 16.5804 18 16.7206 18C17.0537 18 17.3777 17.8691 17.6233 17.6234C17.9724 17.2743 18.0897 16.7674 17.9292 16.3004ZM16.8687 16.8688C16.8333 16.9042 16.7575 16.9579 16.6471 16.92L12.8364 15.6106C12.78 15.5913 12.7214 15.5816 12.663 15.5816C12.5768 15.5816 12.4911 15.6025 12.4134 15.6436C11.3121 16.2262 10.0676 16.5353 8.81435 16.5371C4.61142 16.5439 1.13475 13.1302 1.06817 8.9279C1.03466 6.81364 1.8389 4.82658 3.33272 3.33275C4.82655 1.83896 6.81301 1.03487 8.92787 1.06831C13.1301 1.13493 16.5436 4.60987 16.537 8.81449C16.5351 10.0677 16.2261 11.3123 15.6435 12.4135C15.5745 12.5439 15.5626 12.697 15.6105 12.8365L16.9199 16.6472C16.9579 16.7575 16.9042 16.8334 16.8687 16.8688Z" fill="white"/>
<path d="M8.71545 12.7529C8.43634 12.7529 8.16894 12.9984 8.18185 13.2865C8.19478 13.5756 8.41631 13.8201 8.71545 13.8201C8.99456 13.8201 9.26196 13.5747 9.24906 13.2865C9.23612 12.9974 9.0146 12.7529 8.71545 12.7529Z" fill="white"/>
<path d="M8.7155 4.48853C7.25162 4.48853 6.06067 5.67948 6.06067 7.14335C6.06067 7.43803 6.29959 7.67695 6.59427 7.67695C6.88895 7.67695 7.12787 7.43803 7.12787 7.14335C7.12787 6.26796 7.8401 5.55573 8.7155 5.55573C9.59089 5.55573 10.3031 6.26796 10.3031 7.14335C10.3031 8.01874 9.59089 8.73097 8.7155 8.73097C8.42082 8.73097 8.18189 8.96989 8.18189 9.26457V11.4409C8.18189 11.7356 8.42082 11.9745 8.7155 11.9745C9.01018 11.9745 9.2491 11.7356 9.2491 11.4409V9.74427C10.4581 9.4966 11.3703 8.42451 11.3703 7.14335C11.3703 5.67948 10.1794 4.48853 8.7155 4.48853Z" fill="white"/>
</svg>

