<svg width="16" height="15" viewBox="0 0 16 15" fill="none" xmlns="http://www.w3.org/2000/svg">
<path d="M8 3.125C7.82751 3.125 7.6875 3.26501 7.6875 3.4375C7.6875 3.60999 7.82751 3.75 8 3.75C8.17249 3.75 8.3125 3.60999 8.3125 3.4375C8.3125 3.26501 8.17249 3.125 8 3.125Z" fill="#4D7CEA"/>
<path d="M2.8125 8.75C2.98499 8.75 3.125 8.60999 3.125 8.4375C3.125 8.26501 2.98499 8.125 2.8125 8.125C2.64001 8.125 2.5 8.26501 2.5 8.4375C2.5 8.60999 2.64001 8.75 2.8125 8.75Z" fill="#4D7CEA"/>
<path d="M10.5 0C7.68665 0 5.37756 1.9397 5.19897 4.38293C2.51965 4.51733 0 6.44934 0 9.0625C0 10.1545 0.432129 11.2126 1.21875 12.051C1.37439 12.6926 1.18542 13.3727 0.716553 13.8416C0.627197 13.9309 0.600464 14.0653 0.648804 14.1821C0.697144 14.2988 0.811035 14.375 0.9375 14.375C1.82874 14.375 2.68762 14.0255 3.32581 13.4097C3.94751 13.6216 4.75867 13.75 5.5 13.75C8.31299 13.75 10.6218 11.8108 10.8009 9.36804C11.4552 9.33899 12.1357 9.21814 12.6742 9.03467C13.3124 9.65051 14.1713 10 15.0625 10C15.189 10 15.3029 9.92383 15.3512 9.80713C15.3995 9.69031 15.3728 9.55591 15.2834 9.46655C14.8146 8.99768 14.6256 8.31763 14.7812 7.67603C15.5679 6.83765 16 5.77954 16 4.6875C16 1.97229 13.2863 0 10.5 0ZM5.5 13.125C4.76245 13.125 3.922 12.9802 3.35901 12.7562C3.2384 12.7081 3.10059 12.7397 3.01282 12.8356C2.6355 13.248 2.1449 13.5356 1.61035 13.6678C1.90491 13.1035 1.9801 12.4382 1.8009 11.8079C1.78674 11.7582 1.7605 11.7128 1.72449 11.6758C1.0155 10.9456 0.625 10.0175 0.625 9.0625C0.625 6.86035 2.85742 5 5.5 5C7.99536 5 10.1875 6.73523 10.1875 9.0625C10.1875 11.3026 8.08472 13.125 5.5 13.125ZM14.2755 7.30078C14.2395 7.33789 14.2133 7.3833 14.1991 7.43286C14.0199 8.06323 14.0951 8.72852 14.3896 9.29285C13.8551 9.16077 13.3645 8.87305 12.9872 8.46057C12.8994 8.36487 12.7616 8.33313 12.641 8.38123C12.1531 8.57532 11.457 8.70972 10.7999 8.74219C10.7086 7.56042 10.1191 6.44971 9.11133 5.625H13.1875C13.3601 5.625 13.5 5.48511 13.5 5.3125C13.5 5.13989 13.3601 5 13.1875 5H8.15125C7.44189 4.63892 6.64539 4.42834 5.82556 4.38416C6.00513 2.28528 8.03308 0.625 10.5 0.625C13.1426 0.625 15.375 2.48535 15.375 4.6875C15.375 5.64246 14.9845 6.57056 14.2755 7.30078Z" fill="#4D7CEA"/>
<path d="M8 8.125H4.0625C3.88989 8.125 3.75 8.26489 3.75 8.4375C3.75 8.61011 3.88989 8.75 4.0625 8.75H8C8.17261 8.75 8.3125 8.61011 8.3125 8.4375C8.3125 8.26489 8.17261 8.125 8 8.125Z" fill="#4D7CEA"/>
<path d="M8 10H2.8125C2.63989 10 2.5 10.1399 2.5 10.3125C2.5 10.4851 2.63989 10.625 2.8125 10.625H8C8.17261 10.625 8.3125 10.4851 8.3125 10.3125C8.3125 10.1399 8.17261 10 8 10Z" fill="#4D7CEA"/>
<path d="M13.1875 3.125H9.25C9.07739 3.125 8.9375 3.26489 8.9375 3.4375C8.9375 3.61011 9.07739 3.75 9.25 3.75H13.1875C13.3601 3.75 13.5 3.61011 13.5 3.4375C13.5 3.26489 13.3601 3.125 13.1875 3.125Z" fill="#4D7CEA"/>
</svg>
