<svg width="16" height="15" viewBox="0 0 16 15" fill="none" xmlns="http://www.w3.org/2000/svg">
<path d="M2.33508 9.28955H0.718384C0.322266 9.28955 0 9.61182 0 10.0081V14.2073C0 14.6034 0.322266 14.9257 0.718384 14.9257H2.33508C2.73132 14.9257 3.05359 14.6034 3.05359 14.2073V10.0081C3.05359 9.61182 2.73132 9.28955 2.33508 9.28955ZM2.58484 14.2073C2.58484 14.3448 2.47278 14.4569 2.33508 14.4569H0.718384C0.580811 14.4569 0.46875 14.3448 0.46875 14.2073V10.0081C0.46875 9.87036 0.580811 9.7583 0.718384 9.7583H2.33508C2.47278 9.7583 2.58484 9.87036 2.58484 10.0081V14.2073Z" fill="white"/>
<path d="M6.65063 5.99829H5.03394C4.63782 5.99829 4.31555 6.32056 4.31555 6.71667V8.04932C4.31555 8.17871 4.42041 8.28369 4.54993 8.28369C4.67932 8.28369 4.7843 8.17871 4.7843 8.04932V6.71667C4.7843 6.5791 4.89624 6.46704 5.03394 6.46704H6.65063C6.78833 6.46704 6.90027 6.5791 6.90027 6.71667V14.2073C6.90027 14.3448 6.78833 14.4569 6.65063 14.4569H5.03394C4.89624 14.4569 4.7843 14.3448 4.7843 14.2073V8.98682C4.7843 8.85742 4.67932 8.75244 4.54993 8.75244C4.42041 8.75244 4.31555 8.85742 4.31555 8.98682V14.2073C4.31555 14.6034 4.63782 14.9257 5.03394 14.9257H6.65063C7.04675 14.9257 7.36902 14.6034 7.36902 14.2073V6.7168C7.36902 6.32056 7.04675 5.99829 6.65063 5.99829Z" fill="white"/>
<path d="M10.9661 7.97314H9.34937C8.95325 7.97314 8.63098 8.29541 8.63098 8.69153V14.2073C8.63098 14.6034 8.95325 14.9257 9.34937 14.9257H10.9661C11.3623 14.9257 11.6846 14.6034 11.6846 14.2073V8.69153C11.6846 8.29541 11.3623 7.97314 10.9661 7.97314ZM11.2158 14.2073C11.2158 14.3448 11.1038 14.4569 10.9661 14.4569H9.34937C9.21167 14.4569 9.09973 14.3448 9.09973 14.2073V8.69153C9.09973 8.55383 9.21167 8.44189 9.34937 8.44189H10.9661C11.1038 8.44189 11.2158 8.55383 11.2158 8.69153V14.2073Z" fill="white"/>
<path d="M15.2816 4.35266H13.6649C13.2688 4.35266 12.9464 4.67493 12.9464 5.07104V11.7681C12.9464 11.8975 13.0514 12.0024 13.1808 12.0024C13.3103 12.0024 13.4152 11.8975 13.4152 11.7681V5.07104C13.4152 4.93335 13.5272 4.82141 13.6649 4.82141H15.2816C15.4192 4.82141 15.5312 4.93335 15.5312 5.07104V14.2073C15.5312 14.3448 15.4192 14.4569 15.2816 14.4569H13.6649C13.5272 14.4569 13.4152 14.3448 13.4152 14.2073V12.7056C13.4152 12.5762 13.3103 12.4712 13.1808 12.4712C13.0514 12.4712 12.9464 12.5762 12.9464 12.7056V14.2073C12.9464 14.6034 13.2688 14.9257 13.6649 14.9257H15.2816C15.6777 14.9257 16 14.6034 16 14.2073V5.07104C16 4.67493 15.6777 4.35266 15.2816 4.35266Z" fill="white"/>
<path d="M1.52673 4.93689C0.721558 4.93689 0.0664062 5.59204 0.0664062 6.39722C0.0664062 7.20251 0.721558 7.85767 1.52673 7.85767C2.33203 7.85767 2.98718 7.20251 2.98718 6.39722C2.98718 6.33325 2.98254 6.27051 2.97461 6.20874L5.27722 4.45251C5.45105 4.52576 5.64209 4.56641 5.84229 4.56641C6.15796 4.56641 6.45032 4.46533 6.68945 4.29443L8.70386 5.21619C8.77246 5.95813 9.39819 6.54114 10.1577 6.54114C10.963 6.54114 11.6182 5.88599 11.6182 5.08081C11.6182 4.99353 11.61 4.9082 11.5953 4.8252L13.9712 2.83179C14.1278 2.8894 14.297 2.92078 14.4733 2.92078C15.2784 2.92078 15.9336 2.26562 15.9336 1.46033C15.9336 0.655151 15.2784 0 14.4733 0C13.668 0 13.0128 0.655151 13.0128 1.46033C13.0128 1.54761 13.021 1.63293 13.0356 1.71594L10.6597 3.70935C10.5032 3.65186 10.334 3.62036 10.1577 3.62036C9.84204 3.62036 9.54968 3.72144 9.31055 3.89246L7.29614 2.97058C7.22754 2.22864 6.60193 1.64563 5.84229 1.64563C5.03699 1.64563 4.38196 2.30078 4.38196 3.10596C4.38196 3.16992 4.38647 3.23279 4.39453 3.29456L2.0918 5.05066C1.91785 4.97742 1.72705 4.93689 1.52673 4.93689ZM14.4733 0.46875C15.02 0.46875 15.4648 0.913574 15.4648 1.46033C15.4648 2.00708 15.02 2.45203 14.4733 2.45203C13.9347 2.45203 13.4816 1.9989 13.4816 1.46033C13.4816 0.913574 13.9264 0.46875 14.4733 0.46875ZM13.2057 2.18518C13.2096 2.19202 13.2139 2.19861 13.2179 2.20532C13.3026 2.34802 13.4116 2.4762 13.5391 2.58252L11.4253 4.35583C11.4214 4.349 11.3573 4.24719 11.3259 4.20532C11.2578 4.1145 11.1793 4.03149 11.0919 3.9585L13.2057 2.18518ZM9.16626 5.06616C9.17432 4.53467 9.62317 4.08911 10.1577 4.08911C10.6907 4.08911 11.1493 4.5448 11.1493 5.08081C11.1493 5.62756 10.7045 6.07239 10.1577 6.07239C9.61096 6.07239 9.16614 5.62756 9.16614 5.08081C9.16614 5.07593 9.16614 5.07104 9.16626 5.06616ZM7.04651 3.93091C7.14246 3.79004 7.21484 3.63342 7.25708 3.46826L8.95923 4.24707C8.87256 4.37195 8.80481 4.51062 8.7605 4.65613C8.75415 4.67676 8.74829 4.69751 8.74292 4.71838L7.04077 3.93958C7.04272 3.93677 7.04456 3.93384 7.04651 3.93091ZM5.84229 2.11438C6.38904 2.11438 6.83386 2.5592 6.83386 3.10596C6.83386 3.64014 6.37561 4.09766 5.84229 4.09766C5.30872 4.09766 4.85059 3.64258 4.85059 3.10596C4.85059 2.5592 5.29541 2.11438 5.84229 2.11438ZM4.54236 3.77124C4.54517 3.77661 4.54834 3.78198 4.55115 3.78735C4.62952 3.93555 4.7334 4.07031 4.85706 4.18347L2.82666 5.73206C2.78906 5.65881 2.74487 5.5885 2.69556 5.52271C2.64087 5.44971 2.57959 5.38159 2.51196 5.3197L4.54236 3.77124ZM2.11768 5.6095C2.35828 5.7926 2.51843 6.08093 2.51843 6.39722C2.51843 6.94409 2.07361 7.38892 1.52673 7.38892C0.97998 7.38892 0.535156 6.94409 0.535156 6.39722C0.535156 5.85046 0.97998 5.40564 1.52673 5.40564C1.74475 5.40564 1.95068 5.48218 2.11768 5.6095Z" fill="white"/>
</svg>
