<svg width="16" height="16" viewBox="0 0 16 16" fill="none" xmlns="http://www.w3.org/2000/svg">
<path d="M15.7722 4.19924C15.7722 4.19924 15.7722 4.19924 15.7721 4.19924L15.7716 4.19871L14.7389 4.05137C14.5937 4.03069 14.4928 3.89625 14.5135 3.7511C14.5234 3.68134 14.5606 3.61842 14.617 3.57614L15.4517 2.95012C15.569 2.86214 15.5928 2.69575 15.5048 2.57843L14.549 1.30409C14.4611 1.18678 14.2947 1.16301 14.1773 1.25099L13.3429 1.87701C13.2261 1.96565 13.0596 1.94282 12.9709 1.82601C12.9279 1.76929 12.9094 1.69764 12.9197 1.62719L13.0673 0.594437C13.0881 0.449281 12.9874 0.314778 12.8422 0.293937C12.8421 0.293937 12.842 0.293904 12.8419 0.293904L11.266 0.0687698C11.1209 0.0479289 10.9863 0.148682 10.9655 0.293838C10.9655 0.293871 10.9655 0.293871 10.9655 0.293904L10.8179 1.32666C10.7972 1.47181 10.6627 1.57273 10.5176 1.55206C10.4478 1.54213 10.3849 1.50486 10.3426 1.44851L9.71688 0.613818C9.6289 0.496505 9.46251 0.472744 9.34519 0.56072L8.5474 1.1594C8.18647 1.12103 7.82248 1.12103 7.46155 1.1594C5.09784 1.42957 3.24424 3.3146 3.01383 5.68253C3.00666 5.75766 3.004 5.83226 3.00028 5.90687H2.92064C2.79466 5.9071 2.68618 5.99584 2.66099 6.11926L2.47754 6.99165L1.74267 6.48484C1.6372 6.41206 1.49477 6.42503 1.40417 6.51563L0.607704 7.3121C0.517238 7.40266 0.504296 7.5449 0.576907 7.65033L1.08133 8.38388L0.208675 8.56733C0.0866162 8.59408 -0.000264882 8.7023 6.06783e-07 8.82724V9.8892C-6.57653e-05 10.0148 0.0879105 10.1232 0.210798 10.1491L1.08346 10.3326L0.579031 11.0661C0.50642 11.1715 0.519362 11.3138 0.609828 11.4043L1.40629 12.2008C1.49689 12.2914 1.63933 12.3044 1.74479 12.2316L2.47833 11.7258L2.66179 12.5985C2.68698 12.7219 2.79546 12.8107 2.92143 12.8109H3.98339C4.10896 12.811 4.21742 12.723 4.2433 12.6001L4.42675 11.7274L5.1603 12.2319C5.26573 12.3045 5.40797 12.2915 5.49853 12.2011L5.91083 11.7874V12.5441C5.91203 12.9218 6.11436 13.2702 6.44181 13.4584V14.9335C6.44181 15.52 6.91727 15.9954 7.50377 15.9954H8.56572C9.15222 15.9954 9.62767 15.52 9.62767 14.9335V13.4584C9.95512 13.2702 10.1575 12.9218 10.1586 12.5441V11.4933C10.1659 11.0511 10.3972 10.643 10.7727 10.4096C10.993 10.2666 11.202 10.1068 11.3977 9.93168L11.0435 9.5361C10.8685 9.693 10.6814 9.836 10.4841 9.9638C9.95698 10.2947 9.63428 10.8709 9.62767 11.4933V12.5441C9.62767 12.8373 9.38996 13.0751 9.0967 13.0751H6.97279C6.67952 13.0751 6.44181 12.8373 6.44181 12.5441V11.4712C6.43567 10.8607 6.11805 10.2955 5.59968 9.97283C3.49545 8.65063 2.86147 5.87298 4.18367 3.76875C5.00403 2.46318 6.43574 1.66854 7.97766 1.66303C7.97371 1.67249 7.97023 1.68214 7.96731 1.69197C7.95745 1.76166 7.9757 1.83244 8.01802 1.8887L8.64377 2.72313C8.70975 2.80851 8.71609 2.92579 8.6597 3.01782C8.60541 3.11041 8.50044 3.16092 8.39421 3.14552L7.36146 2.99791C7.21631 2.9771 7.0818 3.07789 7.06096 3.22301C7.06096 3.22311 7.06093 3.22321 7.06093 3.22331L6.83553 4.80004C6.81472 4.94517 6.91551 5.0797 7.06063 5.10054C7.06073 5.10054 7.06083 5.10058 7.06093 5.10058L8.09368 5.24819C8.23884 5.26886 8.33976 5.4033 8.31908 5.54846C8.30916 5.61821 8.27189 5.68113 8.21554 5.72341L7.38111 6.34917C7.2638 6.43715 7.24004 6.60354 7.32801 6.72086L8.28377 7.9952C8.37175 8.11251 8.53814 8.13628 8.65545 8.0483L9.49015 7.42254C9.60756 7.33473 9.77396 7.35872 9.86177 7.47617C9.90378 7.53235 9.92187 7.60291 9.91201 7.67237L9.76466 8.70512C9.74382 8.85024 9.84458 8.98481 9.98973 9.00565C9.98977 9.00565 9.98977 9.00565 9.9898 9.00565L11.5668 9.23105C11.5792 9.23264 11.5917 9.23344 11.6042 9.23344C11.7364 9.23361 11.8485 9.1365 11.8673 9.00565L12.0147 7.9729C12.0354 7.82774 12.1698 7.72682 12.3149 7.7475C12.3847 7.75742 12.4476 7.79469 12.4899 7.85104L13.1159 8.68547C13.2039 8.80278 13.3703 8.82655 13.4876 8.73857L14.762 7.78281C14.8793 7.69483 14.903 7.52844 14.8151 7.41113L14.1893 6.57669C14.1236 6.49117 14.1173 6.37409 14.1734 6.282C14.2265 6.18819 14.3324 6.13734 14.4389 6.15457L15.4716 6.30191C15.6167 6.32275 15.7513 6.22197 15.7721 6.07685C15.7721 6.07681 15.7721 6.07681 15.7721 6.07678L15.9973 4.49978C16.0181 4.35462 15.9174 4.22008 15.7722 4.19924ZM6.97279 13.606H9.0967V14.137H6.97279V13.606ZM6.97279 14.668H9.0967V14.9335C9.0967 15.2267 8.85898 15.4645 8.56572 15.4645H7.50377C7.2105 15.4645 6.97279 15.2267 6.97279 14.9335V14.668ZM4.85923 10.0896C5.00419 10.2082 5.15565 10.3186 5.31295 10.4202C5.56381 10.5787 5.75264 10.8185 5.84791 11.0996L5.27844 11.668L4.72702 11.2878C4.48556 11.1214 4.15493 11.1823 3.9885 11.4237C3.94861 11.4816 3.9206 11.5469 3.90613 11.6157L3.76702 12.2786H3.13595L2.99683 11.6167C2.93644 11.3298 2.65485 11.1461 2.36789 11.2065C2.2991 11.221 2.23385 11.249 2.17594 11.2889L1.62426 11.668L1.14054 11.1853L1.52045 10.6342C1.68701 10.3928 1.62635 10.0621 1.38499 9.89557C1.32704 9.85558 1.26173 9.82751 1.19284 9.813L0.530977 9.67362V9.04282L1.19284 8.90344C1.4797 8.84261 1.66295 8.56076 1.60212 8.27386C1.58769 8.2058 1.56004 8.14125 1.52072 8.08387L1.14054 7.53113L1.62426 7.04847L2.17621 7.42865C2.41777 7.59488 2.7484 7.53381 2.91463 7.29225C2.95446 7.23441 2.9824 7.16923 2.99683 7.1005L3.04329 6.87962C3.08584 7.18553 3.15629 7.48686 3.25383 7.77989C2.38027 7.88403 1.75654 8.67664 1.86068 9.5502C1.96481 10.4238 2.75743 11.0475 3.63099 10.9434C4.15685 10.8806 4.61718 10.5607 4.85923 10.0896ZM4.44693 9.71557C4.24868 10.2666 3.64127 10.5526 3.09022 10.3544C2.53916 10.1561 2.25317 9.54874 2.45139 8.99769C2.60305 8.57612 3.0033 8.29534 3.45132 8.29626C3.45477 8.29626 3.45795 8.29626 3.46141 8.29626C3.70556 8.8227 4.03898 9.30287 4.44693 9.71557ZM15.2826 5.73802L14.5127 5.6281C14.0772 5.56591 13.6738 5.86854 13.6116 6.30397C13.5817 6.51308 13.6361 6.7255 13.7629 6.89448L14.2294 7.51652L13.3798 8.1537L12.9131 7.53192C12.6492 7.17998 12.15 7.1086 11.7981 7.3725C11.6291 7.4992 11.5174 7.68786 11.4874 7.89697L11.3799 8.66795L10.3288 8.51768L10.4387 7.74777C10.5011 7.31233 10.1986 6.90879 9.76321 6.84646C9.55397 6.8165 9.34144 6.87092 9.17236 6.99776L8.55032 7.46422L7.91315 6.61466L8.53492 6.14793C8.88686 5.88403 8.95824 5.38482 8.69435 5.03291C8.56764 4.86393 8.37898 4.75219 8.16988 4.72226L7.39996 4.61234L7.55023 3.56127L8.32014 3.67119C8.75558 3.73354 9.15912 3.43108 9.22144 2.99565C9.25141 2.78641 9.19698 2.57389 9.07015 2.4048L8.60209 1.78223L9.45165 1.14506L9.91838 1.7671C10.1823 2.11904 10.6815 2.19042 11.0334 1.92653C11.2024 1.79982 11.3141 1.61116 11.3441 1.40205L11.454 0.632137L12.505 0.782138L12.3951 1.55206C12.3329 1.98752 12.6355 2.39093 13.071 2.45312C13.2801 2.48299 13.4925 2.42857 13.6615 2.3018L14.2835 1.83533L14.9207 2.6849L14.2987 3.15162C13.9467 3.41552 13.8754 3.91474 14.1392 4.26664C14.266 4.43563 14.4546 4.54737 14.6637 4.5773L15.4336 4.68721L15.2826 5.73802Z" fill="white"/>
<path d="M11.4159 2.52563C10.2429 2.52563 9.29199 3.47655 9.29199 4.64955C9.29199 5.82254 10.2429 6.77346 11.4159 6.77346C12.5889 6.77346 13.5398 5.82254 13.5398 4.64955C13.5385 3.47708 12.5884 2.52693 11.4159 2.52563ZM11.4159 6.24248C10.5361 6.24248 9.82297 5.52931 9.82297 4.64955C9.82297 3.76978 10.5361 3.05661 11.4159 3.05661C12.2957 3.05661 13.0088 3.76978 13.0088 4.64955C13.0078 5.52888 12.2952 6.24145 11.4159 6.24248Z" fill="white"/>
<path d="M8.30027 11.7476H7.76929V12.544H8.30027V11.7476Z" fill="white"/>
<path d="M6.87351 9.14022C5.23462 8.49999 4.42504 6.65239 5.0653 5.0135C5.3134 4.37845 5.75866 3.83974 6.33563 3.47655L6.05183 3.02734C4.315 4.12152 3.79401 6.4165 4.88819 8.15333C5.31194 8.82598 5.94022 9.34504 6.68077 9.63429C7.33626 9.88544 7.76911 10.5147 7.76927 11.2166H8.30025C8.30108 10.2956 7.73353 9.46966 6.87351 9.14022Z" fill="white"/>
<path d="M14.9375 9.88916H13.0791V10.4201H14.9375V9.88916Z" fill="white"/>
<path d="M12.9834 11.278L12.6436 11.6859L14.2366 13.0131L14.5765 12.6052L12.9834 11.278Z" fill="white"/>
<path d="M12.0171 12.0131H11.4861V13.8715H12.0171V12.0131Z" fill="white"/>
<path d="M2.39476 4.05627L0.270996 4.58716L0.399694 5.102L2.52345 4.57112L2.39476 4.05627Z" fill="white"/>
<path d="M1.02061 1.4434L0.712158 1.87524L2.57043 3.20255L2.87888 2.77071L1.02061 1.4434Z" fill="white"/>
<path d="M3.50123 -5.31949e-05L2.98682 0.13147L3.52981 2.25521L4.04422 2.12369L3.50123 -5.31949e-05Z" fill="white"/>
</svg>
