<svg width="20" height="22" viewBox="0 0 20 22" fill="none" xmlns="http://www.w3.org/2000/svg">
<path d="M18.5483 13.4815L16.9705 11.9037L9.87069 4.80422C8.5622 3.50553 6.45003 3.50945 5.14644 4.81304C3.84285 6.11663 3.83893 8.2288 5.13762 9.53729L12.2371 16.6389C12.5275 16.9295 12.9985 16.9295 13.2891 16.6389C13.5794 16.3484 13.5794 15.8776 13.2891 15.587L6.18954 8.48537C5.46344 7.75927 5.46344 6.58225 6.18954 5.85614C6.91565 5.13004 8.09266 5.13004 8.81877 5.85614L15.9204 12.9557L17.4982 14.5333C18.8054 15.841 18.8049 17.9606 17.4974 19.2677C16.1897 20.5747 14.0702 20.5744 12.763 19.2667L11.4485 17.9517L4.08587 10.589L3.55983 10.0632C1.72121 8.16707 1.74457 5.14637 3.61209 3.27868C5.47977 1.41116 8.50046 1.38781 10.3966 3.22642L18.2851 11.1151C18.473 11.3029 18.7469 11.3762 19.0035 11.3075C19.2602 11.2387 19.4608 11.0383 19.5295 10.7816C19.5983 10.5249 19.5248 10.2511 19.337 10.0632L11.4485 2.17467C8.978 -0.284549 4.98313 -0.279976 2.51836 2.18496C0.0534291 4.64972 0.0488563 8.6446 2.50807 11.1151L10.3966 19.0036L11.7131 20.3186C13.6116 22.1422 16.6204 22.1118 18.4815 20.25C20.3428 18.3884 20.3724 15.3796 18.5483 13.4815Z" fill="#B8C4CE"/>
</svg>
