<svg width="24" height="16" viewBox="0 0 24 16" fill="none" xmlns="http://www.w3.org/2000/svg">
<path d="M0.146502 8.3535L7.6465 15.8535C7.84182 16.0488 8.15823 16.0488 8.35351 15.8535C8.54884 15.6582 8.54884 15.3418 8.35351 15.1465L1.70702 8.49999L23.5 8.49999C23.7764 8.49999 24 8.27635 24 7.99997C24 7.7236 23.7764 7.49996 23.5 7.49996L1.70702 7.49996L8.35351 0.853502C8.54884 0.658173 8.54884 0.341768 8.35351 0.146487C8.25587 0.0488468 8.1279 2.42711e-06 7.99998 2.41593e-06C7.87206 2.40475e-06 7.74414 0.0488467 7.64645 0.146487L0.146455 7.64649C-0.0488255 7.84177 -0.0488255 8.15817 0.146502 8.3535Z" fill="white"/>
</svg>
