<svg width="22" height="22" viewBox="0 0 22 22" fill="none" xmlns="http://www.w3.org/2000/svg">
<path d="M11 0.333374C5.1095 0.333374 0.333313 5.10956 0.333313 11C0.333313 16.8905 5.1095 21.6667 11 21.6667C16.8905 21.6667 21.6666 16.8905 21.6666 11C21.6666 5.10956 16.8905 0.333374 11 0.333374ZM11 19.8572C6.1095 19.8572 2.14284 15.8905 2.14284 11C2.14284 6.10956 6.1095 2.1429 11 2.1429C15.8905 2.1429 19.8571 6.10956 19.8571 11C19.8571 15.8905 15.8905 19.8572 11 19.8572Z" fill="#B8C4CE"/>
<path d="M9.85712 6.80961C9.85712 7.11271 9.97752 7.4034 10.1919 7.61773C10.4062 7.83205 10.6969 7.95246 11 7.95246C11.3031 7.95246 11.5938 7.83205 11.8081 7.61773C12.0224 7.4034 12.1428 7.11271 12.1428 6.80961C12.1428 6.5065 12.0224 6.21581 11.8081 6.00148C11.5938 5.78716 11.3031 5.66675 11 5.66675C10.6969 5.66675 10.4062 5.78716 10.1919 6.00148C9.97752 6.21581 9.85712 6.5065 9.85712 6.80961ZM11.5714 9.47627H10.4285C10.3238 9.47627 10.2381 9.56199 10.2381 9.66675V16.1429C10.2381 16.2477 10.3238 16.3334 10.4285 16.3334H11.5714C11.6762 16.3334 11.7619 16.2477 11.7619 16.1429V9.66675C11.7619 9.56199 11.6762 9.47627 11.5714 9.47627Z" fill="#B8C4CE"/>
</svg>
