<svg width="32" height="32" viewBox="0 0 32 32" fill="none" xmlns="http://www.w3.org/2000/svg">
<path d="M15.1666 16C15.1666 15.8607 15.097 15.7306 14.9811 15.6534L11.2311 13.1534C11.1033 13.0681 10.9389 13.0601 10.8034 13.1327C10.6679 13.2052 10.5833 13.3464 10.5833 13.5V14.3334H5.74998C5.5199 14.3334 5.33331 14.52 5.33331 14.75V17.25C5.33331 17.4801 5.5199 17.6667 5.74998 17.6667H10.5833V18.5C10.5833 18.6537 10.6679 18.7949 10.8034 18.8674C10.9385 18.9398 11.1029 18.9321 11.2311 18.8467L14.9811 16.3467C15.097 16.2695 15.1666 16.1394 15.1666 16ZM11.4166 17.7215V17.25C11.4166 17.02 11.2301 16.8334 11 16.8334H6.16665V15.1667H11C11.2301 15.1667 11.4166 14.9801 11.4166 14.75V14.2786L13.9989 16L11.4166 17.7215Z" fill="#8895A7"/>
<path d="M19.3333 14.75V17.25C19.3333 17.4801 19.5199 17.6667 19.75 17.6667C19.9801 17.6667 20.1666 17.4801 20.1666 17.25V14.75C20.1666 14.52 19.9801 14.3334 19.75 14.3334C19.5199 14.3334 19.3333 14.52 19.3333 14.75Z" fill="#8895A7"/>
<path d="M26.25 16.4167C26.4801 16.4167 26.6666 16.2302 26.6666 16C26.6666 15.7699 26.4801 15.5834 26.25 15.5834C26.0199 15.5834 25.8333 15.7699 25.8333 16C25.8333 16.2302 26.0199 16.4167 26.25 16.4167Z" fill="#8895A7"/>
<path d="M26.6666 5.75379C26.6688 5.52333 26.4817 5.33296 26.249 5.33337H13.5C13.2699 5.33337 13.0833 5.51996 13.0833 5.75004V12.25C13.0833 12.4801 13.2699 12.6667 13.5 12.6667C13.7301 12.6667 13.9166 12.4801 13.9166 12.25V6.16671H24.1667L17.0897 9.11546C16.9345 9.18017 16.8333 9.33183 16.8333 9.50004V22.5C16.8333 22.6682 16.9345 22.82 17.0897 22.8846L24.1667 25.8334H13.9166V19.75C13.9166 19.52 13.7301 19.3334 13.5 19.3334C13.2699 19.3334 13.0833 19.52 13.0833 19.75V26.25C13.0833 26.4801 13.2699 26.6667 13.5 26.6667H26.2473C26.486 26.6667 26.6688 26.4729 26.6666 26.2463V17.875C26.6666 17.645 26.48 17.4584 26.25 17.4584C26.0199 17.4584 25.8333 17.645 25.8333 17.875V25.625L17.6666 22.2222V9.77783L25.8333 6.37504V14.125C25.8333 14.3551 26.0199 14.5417 26.25 14.5417C26.48 14.5417 26.6666 14.3551 26.6666 14.125V5.75379Z" fill="#8895A7"/>
</svg>
