<svg width="48" height="48" viewBox="0 0 48 48" fill="none" xmlns="http://www.w3.org/2000/svg">
<path d="M24 16.25C23.655 16.25 23.375 16.53 23.375 16.875C23.375 17.22 23.655 17.5 24 17.5C24.345 17.5 24.625 17.22 24.625 16.875C24.625 16.53 24.345 16.25 24 16.25Z" fill="#8895A7"/>
<path d="M13.625 27.5C13.97 27.5 14.25 27.22 14.25 26.875C14.25 26.53 13.97 26.25 13.625 26.25C13.28 26.25 13 26.53 13 26.875C13 27.22 13.28 27.5 13.625 27.5Z" fill="#8895A7"/>
<path d="M29 10C23.3733 10 18.7551 13.8794 18.3979 18.7659C13.0393 19.0347 8 22.8987 8 28.125C8 30.3091 8.86426 32.4253 10.4375 34.1021C10.7488 35.3853 10.3708 36.7454 9.43311 37.6831C9.25439 37.8618 9.20093 38.1306 9.29761 38.3643C9.39429 38.5977 9.62207 38.75 9.875 38.75C11.6575 38.75 13.3752 38.051 14.6516 36.8193C15.895 37.2432 17.5173 37.5 19 37.5C24.626 37.5 29.2437 33.6216 29.6018 28.7361C30.9104 28.678 32.2715 28.4363 33.3484 28.0693C34.6248 29.301 36.3425 30 38.125 30C38.3779 30 38.6057 29.8477 38.7024 29.6143C38.7991 29.3806 38.7456 29.1118 38.5669 28.9331C37.6292 27.9954 37.2512 26.6353 37.5625 25.3521C39.1357 23.6753 40 21.5591 40 19.375C40 13.9446 34.5725 10 29 10ZM19 36.25C17.5249 36.25 15.844 35.9604 14.718 35.5125C14.4768 35.4163 14.2012 35.4795 14.0256 35.6711C13.271 36.4961 12.2898 37.0713 11.2207 37.3357C11.8098 36.207 11.9602 34.8765 11.6018 33.6157C11.5735 33.5164 11.521 33.4255 11.449 33.3516C10.031 31.8911 9.25 30.0349 9.25 28.125C9.25 23.7207 13.7148 20 19 20C23.9907 20 28.375 23.4705 28.375 28.125C28.375 32.6052 24.1694 36.25 19 36.25ZM36.551 24.6016C36.479 24.6758 36.4265 24.7666 36.3982 24.8657C36.0398 26.1265 36.1902 27.457 36.7793 28.5857C35.7102 28.3215 34.729 27.7461 33.9744 26.9211C33.7988 26.7297 33.5232 26.6663 33.282 26.7625C32.3062 27.1506 30.9141 27.4194 29.5999 27.4844C29.4172 25.1208 28.2383 22.8994 26.2227 21.25H34.375C34.7202 21.25 35 20.9702 35 20.625C35 20.2798 34.7202 20 34.375 20H24.3025C22.8838 19.2778 21.2908 18.8567 19.6511 18.7683C20.0103 14.5706 24.0662 11.25 29 11.25C34.2852 11.25 38.75 14.9707 38.75 19.375C38.75 21.2849 37.969 23.1411 36.551 24.6016Z" fill="#8895A7"/>
<path d="M24 26.25H16.125C15.7798 26.25 15.5 26.5298 15.5 26.875C15.5 27.2202 15.7798 27.5 16.125 27.5H24C24.3452 27.5 24.625 27.2202 24.625 26.875C24.625 26.5298 24.3452 26.25 24 26.25Z" fill="#8895A7"/>
<path d="M24 30H13.625C13.2798 30 13 30.2798 13 30.625C13 30.9702 13.2798 31.25 13.625 31.25H24C24.3452 31.25 24.625 30.9702 24.625 30.625C24.625 30.2798 24.3452 30 24 30Z" fill="#8895A7"/>
<path d="M34.375 16.25H26.5C26.1548 16.25 25.875 16.5298 25.875 16.875C25.875 17.2202 26.1548 17.5 26.5 17.5H34.375C34.7202 17.5 35 17.2202 35 16.875C35 16.5298 34.7202 16.25 34.375 16.25Z" fill="#8895A7"/>
</svg>
