<svg width="17" height="16" viewBox="0 0 17 16" fill="none" xmlns="http://www.w3.org/2000/svg">
<path d="M15.5813 12.3435L12.3426 10.1836C11.9316 9.91174 11.3806 10.0012 11.0768 10.3892L10.1334 11.6022C10.0122 11.762 9.79177 11.8084 9.61637 11.711L9.43692 11.612C8.84203 11.2878 8.10184 10.8841 6.61048 9.39221C5.11913 7.90033 4.71463 7.15957 4.39037 6.56578L4.29197 6.38632C4.1932 6.21096 4.23869 5.98963 4.39862 5.86742L5.61078 4.92431C5.99862 4.62043 6.08821 4.06966 5.81664 3.65853L3.6568 0.419844C3.37848 0.00118926 2.82009 -0.124489 2.38921 0.134523L1.03491 0.948054C0.609381 1.19822 0.297186 1.60338 0.16379 2.07862C-0.323891 3.85555 0.0429864 6.92225 4.56051 11.4403C8.15411 15.0336 10.8294 16 12.6682 16C13.0914 16.0018 13.5129 15.9467 13.9214 15.8362C14.3968 15.703 14.802 15.3908 15.052 14.9651L15.8663 13.6116C16.1257 13.1807 16.0001 12.6219 15.5813 12.3435ZM15.4069 13.338L14.5944 14.6923C14.4149 14.9996 14.1234 15.2255 13.7811 15.3227C12.1407 15.7731 9.27481 15.4 4.9378 11.063C0.600788 6.72601 0.227785 3.86036 0.678156 2.21971C0.775524 1.87698 1.00169 1.58516 1.3093 1.40536L2.6636 0.592894C2.85055 0.480402 3.09291 0.534929 3.21368 0.716603L4.38693 2.47806L5.37167 3.95501C5.4896 4.13334 5.45085 4.37235 5.28261 4.50431L4.07018 5.44743C3.7012 5.72956 3.59584 6.24005 3.82301 6.64521L3.91928 6.82013C4.26007 7.44515 4.68375 8.22268 6.23057 9.76925C7.77739 11.3158 8.55468 11.7395 9.17941 12.0803L9.35458 12.1768C9.75971 12.4039 10.2702 12.2986 10.5524 11.9296L11.4955 10.7172C11.6275 10.549 11.8664 10.5103 12.0448 10.6281L15.2832 12.788C15.465 12.9086 15.5195 13.1511 15.4069 13.338Z" fill="#3361CC"/>
</svg>
