<svg width="24" height="24" viewBox="0 0 24 24" fill="" xmlns="http://www.w3.org/2000/svg">
<mask id="mask0" mask-type="alpha" maskUnits="userSpaceOnUse" x="9" y="5" width="14" height="15">
<rect x="18.8667" y="5.9115" width="5.72713" height="13.9536" transform="rotate(45 18.8667 5.9115)" fill="#C4C4C4"/>
</mask>
<g mask="url(#mask0)">
<path d="M19.8438 8.15954C19.6355 7.94682 19.2978 7.94682 19.0895 8.15954L12.6999 14.6852L10.2438 12.1768C10.0355 11.9641 9.69784 11.9641 9.48953 12.1768C9.28124 12.3895 9.28124 12.7344 9.48953 12.9471L12.3227 15.8405C12.5309 16.0532 12.8689 16.0531 13.077 15.8405L19.8438 8.92983C20.0521 8.71713 20.052 8.37226 19.8438 8.15954Z" fill="#8895A7"/>
</g>
<path d="M14.5104 8.15954C14.3022 7.94682 13.9645 7.94682 13.7562 8.15954L7.36655 14.6852L4.91047 12.1768C4.7022 11.9641 4.36453 11.9641 4.15622 12.1768C3.94793 12.3895 3.94793 12.7344 4.15622 12.9471L6.98942 15.8405C7.19763 16.0532 7.53555 16.0531 7.74367 15.8405L14.5104 8.92983C14.7187 8.71713 14.7187 8.37226 14.5104 8.15954Z" fill="#8895A7"/>
</svg>
